{"title":"Mad.Max-Fury.Road.(2015).1080p[)(]DD+ 5.1-(FR).mkv","uid":12256649,"size":15807590176,"categoryP":"video","categoryS":"hd___movies","magnet":"?xt=urn:btih:9b333a88deb890560fe6ae46e3853b0ca4f1a929&amp;dn=Mad.Max-Fury.Road.%282015%29.1080p%5B%29%28%5DDD%2B+5.1-%28FR%29.mkv&amp;tr=udp%3A%2F%2Ftracker.openbittorrent.com%3A80&amp;tr=udp%3A%2F%2Fopen.demonii.com%3A1337&amp;tr=udp%3A%2F%2Ftracker.coppersurfer.tk%3A6969&amp;tr=udp%3A%2F%2Fexodus.desync.com%3A6969","seeders":0,"leechers":0,"uploader":"Tyr3ll","files":1,"time":1440103572,"description":"Mad.Max-Fury.Road.(2015).1080p[)(]DD+ 5.1-(FR).mkv\n\nSee imdb right here : &lt;a href=&quot;\nhttp://www.imdb.com/title/tt1392190/&quot; rel=&quot;nofollow&quot; target=&quot;_NEW&quot;&gt;\nhttp://www.imdb.com/title/tt1392190/&lt;/a&gt;\n\nSource : BD50 import\n\nGeneral purpose : BD.rip / Master Dubbing\n\nOutput : Mkv @ 1080p uncropped (original aspect ratio &amp; screen resolution)\n\nVideo codec : H263/Simple pass/Average Bit Rate\n\nReencoded at 16000 kb/s\n\nAudio codec : upmixed simple Ac3 5.1/48 Khz/16 Bit/448 Kb/s\nto\nDolby Digital plus aka E-Ac3 5.1/48 Khz/32 Bits/1536 Kb/s (@ 120%/+ 3.0 Db gain)\n@ DRC Off.\n\nLanguage : French only\n\nSub : same as not forced and can be disabled if you prefer anyway.\n\nQuality : Normal/Good\n\nFinal Size : 14,7 Go\n\n-----------------------------------------------------------------------------------\n\nSee below for complete details :\n\n\nGeneral\n\nComplete name                  : Mad.Max-Fury.Road.(2015).1080p[)(]DD+ 5.1-(FR).mkv\n\nFormat                         : Matroska\nFormat version                 : Version 4 / Version 2\nFile size                      : 14.7 GiB\nDuration                       : 2h 0mn\nOverall bit rate               : 17.5 Mbps\nEncoded date                   : UTC 2015-08-20 15:45:37\nWriting application            : Lavf56.40.101\nWriting library                : Lavf56.40.101\n\nVideo\nID                             : 1\nFormat                         : H.263\nCodec ID                       : V_MS/VFW/FOURCC / H263\nDuration                       : 2h 0mn\nBit rate                       : 15.6 Mbps\nWidth                          : 1 920 pixels\nHeight                         : 1 080 pixels\nDisplay aspect ratio           : 16:9\nFrame rate mode                : Constant\nFrame rate                     : 23.976 fps\nBit depth                      : 8 bits\nCompression mode               : Lossy\nBits/(Pixel*Frame)             : 0.314\nStream size                    : 13.1 GiB (89%)\nWriting library                : Lavc56.57.100 h263p\nLanguage                       : French\nDefault                        : Yes\nForced                         : No\nDURATION                       : 02:00:23.388000000\n\nAudio\nID                             : 2\nFormat                         : E-AC-3\nFormat/Info                    : Audio Coding 3\nFormat settings, Endianness    : Big\nCodec ID                       : A_EAC3\nDuration                       : 2h 0mn\nBit rate mode                  : Constant\nBit rate                       : 1 536 Kbps\nChannel(s)                     : 6 channels\nChannel positions              : Front: L C R, Side: L R, LFE\nSampling rate                  : 48.0 KHz\nBit depth                      : 32 bits\nCompression mode               : Lossy\nStream size                    : 1.29 GiB (9%)\nWriting library                : Lavc56.57.100 eac3\nLanguage                       : French\nDefault                        : Yes\nForced                         : No\nDURATION                       : 02:00:23.392000000\n\nText\nID                             : 3\nFormat                         : PGS\nCodec ID                       : S_HDMV/PGS\nCodec ID/Info                  : Picture based subtitle format used on BDs/HD-DVDs\nLanguage                       : French\nDefault                        : Yes\nForced                         : No\nDURATION                       : 02:00:20.927000000\n\nMenu\n00:00:00.000                   : :Chapter 01\n00:10:42.475                   : :Chapter 02\n00:19:06.436                   : :Chapter 03\n00:30:12.310                   : :Chapter 04\n00:42:55.614                   : :Chapter 05\n00:49:33.345                   : :Chapter 06\n00:59:55.174                   : :Chapter 07\n01:13:02.544                   : :Chapter 08\n01:22:08.924                   : :Chapter 09\n01:30:02.730                   : :Chapter 10\n01:40:39.867                   : :Chapter 11\n01:49:12.546                   : :Chapter 12\n01:53:06.279                   : :Chapter 13\n02:00:23.132                   : :Chapter 14\n\n\nEnjoy and please, seed, as long as you can.\n\nTy and best regards","torrent":{"xt":"urn:btih:9b333a88deb890560fe6ae46e3853b0ca4f1a929","amp;dn":"Mad.Max-Fury.Road.%282015%29.1080p%5B%29%28%5DDD%2B+5.1-%28FR%29.mkv","amp;tr":["udp%3A%2F%2Ftracker.openbittorrent.com%3A80","udp%3A%2F%2Fopen.demonii.com%3A1337","udp%3A%2F%2Ftracker.coppersurfer.tk%3A6969","udp%3A%2F%2Fexodus.desync.com%3A6969"],"infoHash":"9b333a88deb890560fe6ae46e3853b0ca4f1a929","infoHashBuffer":{"type":"Buffer","data":[155,51,58,136,222,184,144,86,15,230,174,70,227,133,59,12,164,241,169,41]},"announce":[],"urlList":[]}}